<svg width="122" height="51" viewBox="0 0 122 51" fill="none" xmlns="http://www.w3.org/2000/svg">
<path d="M24.5 49V24.5M24.5 49L32.5 49.0241M24.5 49H24V50M24.5 24.5V22M24.5 24.5H32.5M92 22V24.5M92 24.5V49.2027M92 24.5H84M92 49.2027L84 49.1787M92 49.2027H92.5V50M84 24.5V49.1787M84 24.5H62M84 49.1787L62 49.1126M62 24.5V49.1126M62 24.5H54.5M62 49.1126L54.5 49.0901M54.5 24.5V49.0901M54.5 24.5H32.5M54.5 49.0901L32.5 49.0241M32.5 24.5V49.0241M24 50H92.5M24 50H22.5M92.5 50H94M1 16C3 15.6667 7.3 14.5 8.5 12.5C10 10 10.7216 9.0927 12.5 8.5C14.2784 7.90729 15.5 1.50008 19.5 8.00005C21.5 10.5 21.5 11.0001 23 8.50004L25 5.5H51M51 5.5L18.5 22H99L66 5.5M51 5.5L58.5 1L66 5.5M66 5.5H93C93.8333 6.33333 95.8 8.1 97 8.5C98.5 9 102 9.5 103.5 13.5C105.5 17.5 106.5 13.5 107.5 12.5C108.5 11.5 111 4 117.5 12.5C121 16.5 121 16.5 121.5 17" stroke="white"/>
</svg>
