<svg width="128" height="128" viewBox="0 0 128 128" fill="none" xmlns="http://www.w3.org/2000/svg">
<circle cx="64" cy="64" r="64" fill="#002650"/>
<path d="M27.5 90V65.5M27.5 90L35.5 90.0241M27.5 90H27V91M27.5 65.5V63M27.5 65.5H35.5M95 63V65.5M95 65.5V90.2027M95 65.5H87M95 90.2027L87 90.1787M95 90.2027H95.5V91M87 65.5V90.1787M87 65.5H65M87 90.1787L65 90.1126M65 65.5V90.1126M65 65.5H57.5M65 90.1126L57.5 90.0901M57.5 65.5V90.0901M57.5 65.5H35.5M57.5 90.0901L35.5 90.0241M35.5 65.5V90.0241M27 91H95.5M27 91H25.5M95.5 91H97M4 57C6 56.6667 10.3 55.5 11.5 53.5C13 51 13.7216 50.0927 15.5 49.5C17.2784 48.9073 18.5 42.5001 22.5 49.0001C24.5 51.5 24.5 52.0001 26 49.5L28 46.5H54M54 46.5L21.5 63H102L69 46.5M54 46.5L61.5 42L69 46.5M69 46.5H96C96.8333 47.3333 98.8 49.1 100 49.5C101.5 50 105 50.5 106.5 54.5C108.5 58.5 109.5 54.5 110.5 53.5C111.5 52.5 114 45 120.5 53.5C124 57.5 124 57.5 124.5 58" stroke="white"/>
</svg>
